<svg xmlns="http://www.w3.org/2000/svg" viewBox="0 0 100 100" preserveAspectRatio="xMidYMid" width="241" height="241" style="shape-rendering: auto; display: block; background: transparent;" xmlns:xlink="http://www.w3.org/1999/xlink"><g><g transform="rotate(0 50 50)">
  <rect fill="#29bbca" height="12" width="11" ry="6" rx="5.5" y="31" x="44.5">
    <animate repeatCount="indefinite" begin="-1.0371650821089022s" dur="1.1235955056179776s" keyTimes="0;1" values="1;0" attributeName="opacity"></animate>
  </rect>
</g><g transform="rotate(27.692307692307693 50 50)">
  <rect fill="#29bbca" height="12" width="11" ry="6" rx="5.5" y="31" x="44.5">
    <animate repeatCount="indefinite" begin="-0.9507346585998271s" dur="1.1235955056179776s" keyTimes="0;1" values="1;0" attributeName="opacity"></animate>
  </rect>
</g><g transform="rotate(55.38461538461539 50 50)">
  <rect fill="#29bbca" height="12" width="11" ry="6" rx="5.5" y="31" x="44.5">
    <animate repeatCount="indefinite" begin="-0.8643042350907519s" dur="1.1235955056179776s" keyTimes="0;1" values="1;0" attributeName="opacity"></animate>
  </rect>
</g><g transform="rotate(83.07692307692308 50 50)">
  <rect fill="#29bbca" height="12" width="11" ry="6" rx="5.5" y="31" x="44.5">
    <animate repeatCount="indefinite" begin="-0.7778738115816767s" dur="1.1235955056179776s" keyTimes="0;1" values="1;0" attributeName="opacity"></animate>
  </rect>
</g><g transform="rotate(110.76923076923077 50 50)">
  <rect fill="#29bbca" height="12" width="11" ry="6" rx="5.5" y="31" x="44.5">
    <animate repeatCount="indefinite" begin="-0.6914433880726015s" dur="1.1235955056179776s" keyTimes="0;1" values="1;0" attributeName="opacity"></animate>
  </rect>
</g><g transform="rotate(138.46153846153845 50 50)">
  <rect fill="#29bbca" height="12" width="11" ry="6" rx="5.5" y="31" x="44.5">
    <animate repeatCount="indefinite" begin="-0.6050129645635264s" dur="1.1235955056179776s" keyTimes="0;1" values="1;0" attributeName="opacity"></animate>
  </rect>
</g><g transform="rotate(166.15384615384616 50 50)">
  <rect fill="#29bbca" height="12" width="11" ry="6" rx="5.5" y="31" x="44.5">
    <animate repeatCount="indefinite" begin="-0.5185825410544511s" dur="1.1235955056179776s" keyTimes="0;1" values="1;0" attributeName="opacity"></animate>
  </rect>
</g><g transform="rotate(193.84615384615384 50 50)">
  <rect fill="#29bbca" height="12" width="11" ry="6" rx="5.5" y="31" x="44.5">
    <animate repeatCount="indefinite" begin="-0.43215211754537597s" dur="1.1235955056179776s" keyTimes="0;1" values="1;0" attributeName="opacity"></animate>
  </rect>
</g><g transform="rotate(221.53846153846155 50 50)">
  <rect fill="#29bbca" height="12" width="11" ry="6" rx="5.5" y="31" x="44.5">
    <animate repeatCount="indefinite" begin="-0.34572169403630076s" dur="1.1235955056179776s" keyTimes="0;1" values="1;0" attributeName="opacity"></animate>
  </rect>
</g><g transform="rotate(249.23076923076923 50 50)">
  <rect fill="#29bbca" height="12" width="11" ry="6" rx="5.5" y="31" x="44.5">
    <animate repeatCount="indefinite" begin="-0.25929127052722556s" dur="1.1235955056179776s" keyTimes="0;1" values="1;0" attributeName="opacity"></animate>
  </rect>
</g><g transform="rotate(276.9230769230769 50 50)">
  <rect fill="#29bbca" height="12" width="11" ry="6" rx="5.5" y="31" x="44.5">
    <animate repeatCount="indefinite" begin="-0.17286084701815038s" dur="1.1235955056179776s" keyTimes="0;1" values="1;0" attributeName="opacity"></animate>
  </rect>
</g><g transform="rotate(304.61538461538464 50 50)">
  <rect fill="#29bbca" height="12" width="11" ry="6" rx="5.5" y="31" x="44.5">
    <animate repeatCount="indefinite" begin="-0.08643042350907519s" dur="1.1235955056179776s" keyTimes="0;1" values="1;0" attributeName="opacity"></animate>
  </rect>
</g><g transform="rotate(332.3076923076923 50 50)">
  <rect fill="#29bbca" height="12" width="11" ry="6" rx="5.5" y="31" x="44.5">
    <animate repeatCount="indefinite" begin="0s" dur="1.1235955056179776s" keyTimes="0;1" values="1;0" attributeName="opacity"></animate>
  </rect>
</g><g></g></g><!-- [ldio] generated by https://loading.io --></svg>